G04*
G04 #@! TF.GenerationSoftware,Altium Limited,Altium Designer,20.0.11 (256)*
G04*
G04 Layer_Color=0*
%FSLAX25Y25*%
%MOIN*%
G70*
G01*
G75*
%ADD50C,0.00197*%
D50*
X92715Y148625D02*
X114368D01*
X92715Y177838D02*
X114368D01*
X92715Y148625D02*
Y177838D01*
X114368Y148625D02*
Y177838D01*
Y183979D02*
Y213192D01*
X92715Y183979D02*
Y213192D01*
X114368D01*
X92715Y183979D02*
X114368D01*
X93173Y-4875D02*
Y24338D01*
X114827Y-4875D02*
Y24338D01*
X93173Y-4875D02*
X114827D01*
X93173Y24338D02*
X114827D01*
X93173Y30479D02*
Y59692D01*
X114827Y30479D02*
Y59692D01*
X93173Y30479D02*
X114827D01*
X93173Y59692D02*
X114827D01*
X179134Y90349D02*
X188976D01*
Y118302D01*
X179134D02*
X188976D01*
X179134D02*
Y122869D01*
X170866D02*
X179134D01*
X170866Y118302D02*
Y122869D01*
X161024Y118302D02*
X170866D01*
X161024Y90349D02*
Y118302D01*
Y90349D02*
X170866D01*
Y85782D02*
Y90349D01*
Y85782D02*
X179134D01*
Y90349D01*
X208295D02*
X218138D01*
Y118302D01*
X208295D02*
X218138D01*
X208295D02*
Y122869D01*
X200028D02*
X208295D01*
X200028Y118302D02*
Y122869D01*
X190185Y118302D02*
X200028D01*
X190185Y90349D02*
Y118302D01*
Y90349D02*
X200028D01*
Y85782D02*
Y90349D01*
Y85782D02*
X208295D01*
Y90349D01*
X204528Y64016D02*
Y68583D01*
X212795D01*
Y64016D02*
Y68583D01*
Y64016D02*
X222638D01*
Y36063D02*
Y64016D01*
X212795Y36063D02*
X222638D01*
X212795Y31496D02*
Y36063D01*
X204528Y31496D02*
X212795D01*
X204528D02*
Y36063D01*
X194685D02*
X204528D01*
X194685D02*
Y64016D01*
X204528D01*
X212795Y140436D02*
Y145003D01*
X204528Y140436D02*
X212795D01*
X204528D02*
Y145003D01*
X194685D02*
X204528D01*
X194685D02*
Y172956D01*
X204528D01*
Y177523D01*
X212795D01*
Y172956D02*
Y177523D01*
Y172956D02*
X222638D01*
Y145003D02*
Y172956D01*
X212795Y145003D02*
X222638D01*
M02*
