G04*
G04 #@! TF.GenerationSoftware,Altium Limited,Altium Designer,20.0.11 (256)*
G04*
G04 Layer_Physical_Order=1*
G04 Layer_Color=255*
%FSLAX25Y25*%
%MOIN*%
G70*
G01*
G75*
%ADD14C,0.01000*%
%ADD17R,0.04331X0.06693*%
%ADD18R,0.02362X0.07756*%
%ADD19R,0.23622X0.23622*%
%ADD20R,0.02953X0.03347*%
%ADD21R,0.06221X0.13819*%
%ADD22R,0.03150X0.03543*%
%ADD23R,0.06142X0.09173*%
%ADD24R,0.03937X0.07874*%
%ADD25O,0.06693X0.01378*%
%ADD26R,0.03543X0.03150*%
%ADD42C,0.01200*%
%ADD43C,0.07047*%
%ADD44R,0.07047X0.07047*%
%ADD45C,0.05500*%
%ADD46C,0.10000*%
%ADD47C,0.29134*%
%ADD48C,0.01987*%
G36*
X220071Y227450D02*
Y219378D01*
X219602Y219205D01*
X219419Y219419D01*
X217604Y220970D01*
X215568Y222217D01*
X213363Y223131D01*
X211041Y223688D01*
X208661Y223875D01*
X206281Y223688D01*
X203960Y223131D01*
X201754Y222217D01*
X199719Y220970D01*
X197904Y219419D01*
X196353Y217604D01*
X195106Y215568D01*
X194192Y213363D01*
X193635Y211041D01*
X193448Y208661D01*
X193635Y206281D01*
X194192Y203960D01*
X195106Y201754D01*
X196353Y199719D01*
X196680Y199337D01*
X196470Y198882D01*
X65570Y198882D01*
X65570Y227450D01*
X220071Y227450D01*
D02*
G37*
G36*
X149570Y163502D02*
X133736D01*
X133500Y163599D01*
X83838Y163599D01*
X83602Y163502D01*
X65570D01*
X65570Y197950D01*
X149570Y197950D01*
Y163502D01*
D02*
G37*
G36*
X285689Y162548D02*
X285689Y162048D01*
X218947Y162048D01*
X218947Y197500D01*
X219419Y197904D01*
X220970Y199719D01*
X222217Y201754D01*
X223131Y203960D01*
X223688Y206281D01*
X223875Y208661D01*
X223688Y211041D01*
X223131Y213363D01*
X222217Y215568D01*
X220970Y217604D01*
X220287Y218403D01*
X220511Y218911D01*
X220530Y218919D01*
X220575Y219027D01*
X220661Y219107D01*
X220666Y219248D01*
X220720Y219378D01*
Y227450D01*
X220847Y227639D01*
X285689D01*
Y162548D01*
D02*
G37*
G36*
X197864Y197950D02*
X197904Y197904D01*
X199719Y196353D01*
X201754Y195106D01*
X203960Y194192D01*
X206281Y193635D01*
X208661Y193448D01*
X211041Y193635D01*
X213363Y194192D01*
X215568Y195106D01*
X217604Y196353D01*
X217799Y196520D01*
X218253Y196311D01*
X218253Y161398D01*
X161923Y161398D01*
X161923Y197950D01*
X197864Y197950D01*
D02*
G37*
G36*
X285689Y136561D02*
X285689Y136099D01*
X162661Y136099D01*
Y160749D01*
X218253Y160749D01*
X218712Y160939D01*
X218903Y161398D01*
X285689Y161398D01*
Y136561D01*
D02*
G37*
G36*
X233703Y108938D02*
X234789Y108640D01*
X235284Y108372D01*
X237586Y107121D01*
X237586Y107121D01*
X237586Y107121D01*
X238590Y106472D01*
X240710Y105367D01*
X242951Y104534D01*
X245277Y103985D01*
X246461Y103820D01*
X285689Y103820D01*
Y48450D01*
X161020Y48450D01*
X161020Y103820D01*
X219419Y103820D01*
Y103820D01*
X219419Y103820D01*
X219909Y103913D01*
X220499Y104024D01*
X222620Y104602D01*
X224667Y105401D01*
X226618Y106412D01*
X227551Y106993D01*
X230960Y108531D01*
X230960Y108531D01*
X230960Y108531D01*
X231473Y108763D01*
X232578Y108979D01*
X233703Y108938D01*
D02*
G37*
G36*
X133500Y152611D02*
X150661Y135450D01*
X285689Y135450D01*
Y104602D01*
X245556D01*
X245397Y104624D01*
X243139Y105157D01*
X240974Y105962D01*
X238917Y107034D01*
X237938Y107666D01*
X237913Y107671D01*
X237896Y107692D01*
X235594Y108942D01*
D01*
X235099Y109211D01*
X235022Y109219D01*
X234961Y109267D01*
X233875Y109564D01*
X233798Y109555D01*
X233727Y109587D01*
X232602Y109628D01*
X232529Y109601D01*
X232453Y109617D01*
X231348Y109400D01*
X231283Y109357D01*
X231206Y109355D01*
X230693Y109123D01*
X230692Y109123D01*
X227283Y107585D01*
X227252Y107552D01*
X227207Y107544D01*
X226296Y106976D01*
X224398Y105993D01*
X222415Y105219D01*
X220353Y104657D01*
X220059Y104602D01*
X160349D01*
X144000Y88253D01*
X144000Y46500D01*
X84087Y46500D01*
X83983Y71685D01*
X107570Y95272D01*
X107570Y120543D01*
X83481Y150103D01*
X83403Y162514D01*
X83838Y162950D01*
X133500Y162950D01*
X133500Y152611D01*
D02*
G37*
G36*
X218947Y47450D02*
X218947Y11758D01*
X218493Y11549D01*
X217604Y12308D01*
X215568Y13556D01*
X213363Y14469D01*
X211041Y15026D01*
X208661Y15214D01*
X206281Y15026D01*
X203960Y14469D01*
X201754Y13556D01*
X199719Y12308D01*
X197904Y10758D01*
X196512Y9128D01*
X161000Y9128D01*
X161000Y47450D01*
X218947Y47450D01*
D02*
G37*
G36*
X150500Y9128D02*
X66500Y9128D01*
X66500Y45801D01*
X126500Y45801D01*
X150500D01*
Y9128D01*
D02*
G37*
G36*
X160977Y8488D02*
X161000Y8479D01*
X195557Y8479D01*
X195802Y8043D01*
X195106Y6907D01*
X194192Y4701D01*
X193635Y2380D01*
X193448Y0D01*
X193635Y-2380D01*
X194192Y-4701D01*
X195106Y-6907D01*
X196353Y-8942D01*
X197904Y-10758D01*
X199719Y-12308D01*
X201754Y-13556D01*
X203960Y-14469D01*
X206281Y-15026D01*
X208661Y-15214D01*
X211041Y-15026D01*
X213363Y-14469D01*
X215568Y-13556D01*
X217604Y-12308D01*
X218546Y-11504D01*
X219000Y-11713D01*
Y-18050D01*
X66346Y-18050D01*
X66346Y8017D01*
X66358Y8053D01*
X66846Y8479D01*
X150500Y8479D01*
X150523Y8488D01*
X160977D01*
D02*
G37*
G36*
X285689Y-19239D02*
X219419D01*
Y-18526D01*
X219459Y-18509D01*
X219649Y-18050D01*
Y-11713D01*
X219605Y-11605D01*
X219609Y-11488D01*
X219513Y-11384D01*
X219459Y-11254D01*
X219419Y-11237D01*
Y-10758D01*
X220970Y-8942D01*
X222217Y-6907D01*
X223131Y-4701D01*
X223688Y-2380D01*
X223875Y0D01*
X223688Y2380D01*
X223131Y4701D01*
X222217Y6907D01*
X220970Y8942D01*
X219419Y10758D01*
Y11331D01*
X219460Y11430D01*
X219556Y11534D01*
X219552Y11650D01*
X219596Y11758D01*
X219596Y47450D01*
X285689Y47450D01*
Y-19239D01*
D02*
G37*
%LPC*%
G36*
X96031Y216441D02*
X95409Y216317D01*
X94882Y215965D01*
X94530Y215438D01*
X94406Y214816D01*
X94530Y214194D01*
X94814Y213769D01*
Y212808D01*
X94260D01*
Y203852D01*
X97822D01*
Y212808D01*
X97258D01*
Y213784D01*
X97532Y214194D01*
X97656Y214816D01*
X97532Y215438D01*
X97180Y215965D01*
X96653Y216317D01*
X96031Y216441D01*
D02*
G37*
G36*
X97822Y177453D02*
X94260D01*
Y174172D01*
X93201D01*
X92783Y174451D01*
X92161Y174575D01*
X91540Y174451D01*
X91012Y174099D01*
X90660Y173572D01*
X90536Y172950D01*
X90660Y172328D01*
X91012Y171801D01*
X91540Y171449D01*
X92161Y171325D01*
X92783Y171449D01*
X93201Y171728D01*
X94260D01*
Y168498D01*
X97822D01*
Y177453D01*
D02*
G37*
G36*
X236315Y209609D02*
X235239Y209468D01*
X234235Y209052D01*
X233374Y208391D01*
X232713Y207530D01*
X232297Y206526D01*
X232156Y205450D01*
X232297Y204374D01*
X232713Y203370D01*
X233374Y202509D01*
X234235Y201848D01*
X235239Y201432D01*
X236315Y201291D01*
X237391Y201432D01*
X238395Y201848D01*
X239256Y202509D01*
X239917Y203370D01*
X240332Y204374D01*
X240474Y205450D01*
X240332Y206526D01*
X239917Y207530D01*
X239256Y208391D01*
X238395Y209052D01*
X237391Y209468D01*
X236315Y209609D01*
D02*
G37*
G36*
Y180109D02*
X235239Y179967D01*
X234235Y179552D01*
X233374Y178891D01*
X232713Y178030D01*
X232297Y177026D01*
X232156Y175950D01*
X232297Y174873D01*
X232713Y173870D01*
X233374Y173009D01*
X234235Y172348D01*
X235239Y171932D01*
X236315Y171791D01*
X237391Y171932D01*
X238395Y172348D01*
X239256Y173009D01*
X239917Y173870D01*
X240332Y174873D01*
X240474Y175950D01*
X240332Y177026D01*
X239917Y178030D01*
X239256Y178891D01*
X238395Y179552D01*
X237391Y179967D01*
X236315Y180109D01*
D02*
G37*
G36*
X238192Y158979D02*
X236730Y158787D01*
X235368Y158223D01*
X234198Y157325D01*
X233300Y156155D01*
X232736Y154793D01*
X232544Y153331D01*
X232736Y151869D01*
X233300Y150507D01*
X234198Y149337D01*
X235368Y148440D01*
X236730Y147875D01*
X238192Y147683D01*
X239654Y147875D01*
X241016Y148440D01*
X242186Y149337D01*
X243084Y150507D01*
X243648Y151869D01*
X243841Y153331D01*
X243648Y154793D01*
X243084Y156155D01*
X242186Y157325D01*
X241016Y158223D01*
X239654Y158787D01*
X238192Y158979D01*
D02*
G37*
G36*
Y60579D02*
X236730Y60387D01*
X235368Y59823D01*
X234198Y58925D01*
X233300Y57755D01*
X232736Y56393D01*
X232544Y54931D01*
X232736Y53469D01*
X233300Y52107D01*
X234198Y50937D01*
X235368Y50039D01*
X236730Y49475D01*
X238192Y49283D01*
X239654Y49475D01*
X241016Y50039D01*
X242186Y50937D01*
X243084Y52107D01*
X243648Y53469D01*
X243841Y54931D01*
X243648Y56393D01*
X243084Y57755D01*
X242186Y58925D01*
X241016Y59823D01*
X239654Y60387D01*
X238192Y60579D01*
D02*
G37*
G36*
X113281Y39820D02*
X109719D01*
Y30864D01*
X113281D01*
Y34120D01*
X114122D01*
X114540Y33841D01*
X115161Y33717D01*
X115783Y33841D01*
X116310Y34193D01*
X116663Y34720D01*
X116786Y35342D01*
X116663Y35963D01*
X116310Y36491D01*
X115783Y36843D01*
X115161Y36967D01*
X114540Y36843D01*
X114122Y36564D01*
X113281D01*
Y39820D01*
D02*
G37*
G36*
Y4465D02*
X109719D01*
Y-4491D01*
X113281D01*
Y-1272D01*
X114122D01*
X114540Y-1551D01*
X115161Y-1675D01*
X115783Y-1551D01*
X116310Y-1199D01*
X116663Y-672D01*
X116786Y-50D01*
X116663Y572D01*
X116310Y1099D01*
X115783Y1451D01*
X115161Y1575D01*
X114540Y1451D01*
X114122Y1172D01*
X113281D01*
Y4465D01*
D02*
G37*
G36*
X238470Y36574D02*
X230223D01*
Y28326D01*
X238470D01*
Y36574D01*
D02*
G37*
G36*
Y7074D02*
X230223D01*
Y-1174D01*
X238470D01*
Y7074D01*
D02*
G37*
%LPD*%
D14*
X22973Y79450D02*
X27661D01*
X17461Y86950D02*
Y94253D01*
X2961Y86950D02*
Y94253D01*
X27767Y92362D02*
X40869D01*
X27661Y92256D02*
X27767Y92362D01*
X40869D02*
X40941Y92434D01*
X22973Y79450D02*
X22973Y79450D01*
X8472Y94450D02*
Y101950D01*
X2961Y79450D02*
Y86950D01*
Y71950D02*
Y79450D01*
X22973Y71950D02*
Y79450D01*
X49406Y71950D02*
Y79450D01*
X54917Y71950D02*
Y79450D01*
Y64000D02*
Y71950D01*
D17*
X223815Y184000D02*
D03*
X213185D02*
D03*
Y25000D02*
D03*
X223815D02*
D03*
D18*
X111041Y153487D02*
D03*
X106041D02*
D03*
X101041D02*
D03*
X96041D02*
D03*
Y172976D02*
D03*
X101041D02*
D03*
X106041D02*
D03*
X111041D02*
D03*
Y208330D02*
D03*
X106041D02*
D03*
X101041D02*
D03*
X96041D02*
D03*
Y188842D02*
D03*
X101041D02*
D03*
X106041D02*
D03*
X111041D02*
D03*
X96500Y-13D02*
D03*
X101500D02*
D03*
X106500D02*
D03*
X111500D02*
D03*
Y19476D02*
D03*
X106500D02*
D03*
X101500D02*
D03*
X96500D02*
D03*
Y35342D02*
D03*
X101500D02*
D03*
X106500D02*
D03*
X111500D02*
D03*
Y54830D02*
D03*
X106500D02*
D03*
X101500D02*
D03*
X96500D02*
D03*
D19*
X128819Y180909D02*
D03*
X181181D02*
D03*
Y27409D02*
D03*
X128819D02*
D03*
D20*
X3256Y109450D02*
D03*
X8177D02*
D03*
D21*
X175000Y93695D02*
D03*
Y114955D02*
D03*
X204161Y93695D02*
D03*
Y114955D02*
D03*
X208661Y39410D02*
D03*
Y60669D02*
D03*
Y169609D02*
D03*
Y148349D02*
D03*
D22*
X2961Y79450D02*
D03*
X8472D02*
D03*
X2961Y131950D02*
D03*
X8472D02*
D03*
X2961Y139450D02*
D03*
X8472D02*
D03*
X2961Y71950D02*
D03*
X8472D02*
D03*
X2961Y101950D02*
D03*
X8472D02*
D03*
X2961Y116950D02*
D03*
X8472D02*
D03*
X17461Y94450D02*
D03*
X22973D02*
D03*
X17461Y124450D02*
D03*
X22973D02*
D03*
X22972Y116950D02*
D03*
X17461D02*
D03*
X22972Y101950D02*
D03*
X17461D02*
D03*
X80756Y114871D02*
D03*
X75244D02*
D03*
X81756Y92371D02*
D03*
X76244D02*
D03*
X62472Y131950D02*
D03*
X56961D02*
D03*
X49406Y79450D02*
D03*
X54917D02*
D03*
X2961Y86950D02*
D03*
X8472D02*
D03*
X17461D02*
D03*
X22973D02*
D03*
X17461Y79450D02*
D03*
X22973D02*
D03*
X17461Y71950D02*
D03*
X22973D02*
D03*
X2961Y94450D02*
D03*
X8472D02*
D03*
X17461Y131950D02*
D03*
X22973D02*
D03*
X17461Y139450D02*
D03*
X22973D02*
D03*
X17461Y109450D02*
D03*
X22973D02*
D03*
X93500Y114871D02*
D03*
X87988D02*
D03*
X94000Y92371D02*
D03*
X88488D02*
D03*
X62256Y147000D02*
D03*
X56744D02*
D03*
X49406Y64000D02*
D03*
X54917D02*
D03*
X56961Y139450D02*
D03*
X62472D02*
D03*
X49406Y71950D02*
D03*
X54917D02*
D03*
D23*
X78161Y207871D02*
D03*
Y191020D02*
D03*
X78000Y1075D02*
D03*
Y17925D02*
D03*
D24*
X40500Y143311D02*
D03*
Y131500D02*
D03*
D25*
X63382Y87316D02*
D03*
Y89875D02*
D03*
Y92434D02*
D03*
Y94993D02*
D03*
Y97552D02*
D03*
Y100111D02*
D03*
Y102671D02*
D03*
Y105229D02*
D03*
Y107789D02*
D03*
Y110348D02*
D03*
Y112907D02*
D03*
Y115466D02*
D03*
Y118025D02*
D03*
Y120584D02*
D03*
X40941Y87316D02*
D03*
Y89875D02*
D03*
Y92434D02*
D03*
Y94993D02*
D03*
Y97552D02*
D03*
Y100111D02*
D03*
Y102671D02*
D03*
Y105229D02*
D03*
Y107789D02*
D03*
Y110348D02*
D03*
Y112907D02*
D03*
Y115466D02*
D03*
Y118025D02*
D03*
Y120584D02*
D03*
D26*
X93681Y101073D02*
D03*
Y108554D02*
D03*
X85807Y104813D02*
D03*
D42*
X28702Y131753D02*
Y149706D01*
X57040Y178043D01*
X17068Y66106D02*
X56161Y27013D01*
X11045Y66106D02*
X17068D01*
X40941Y83984D02*
Y87316D01*
X40907Y83950D02*
X40941Y83984D01*
X83364Y164205D02*
X100338D01*
X75244Y114871D02*
Y156084D01*
X83364Y164205D01*
X101041Y164907D02*
Y172976D01*
X100338Y164205D02*
X101041Y164907D01*
X45711Y64000D02*
X49406D01*
X45661Y63950D02*
X45711Y64000D01*
X63382Y102671D02*
X69040D01*
X35661D02*
X40941D01*
X17461Y83828D02*
Y86950D01*
X62256Y147000D02*
Y150233D01*
X62472Y150450D01*
X40500Y143311D02*
Y150450D01*
X22973Y131753D02*
X34661Y120064D01*
X22973Y131950D02*
Y139450D01*
X34661Y116799D02*
Y120064D01*
Y116799D02*
X35995Y115466D01*
X22973Y131753D02*
Y131950D01*
X22972Y116950D02*
X30618D01*
X34661Y112907D01*
X57040Y178043D02*
Y181426D01*
X13312Y124450D02*
X17461D01*
X8177Y109450D02*
Y112907D01*
X2961Y139450D02*
Y143311D01*
X96016Y172950D02*
X96041Y172976D01*
X92161Y172950D02*
X96016D01*
X62630Y124450D02*
X72356Y134176D01*
Y159639D01*
X61919Y124450D02*
X62630D01*
X58454Y117624D02*
Y120984D01*
X61919Y124450D01*
X60676Y115466D02*
X63382D01*
X60006Y116136D02*
X60676Y115466D01*
X59942Y116136D02*
X60006D01*
X58454Y117624D02*
X59942Y116136D01*
Y108459D02*
X60006D01*
X60676Y107789D01*
X56632Y111832D02*
Y115782D01*
Y111832D02*
X58835Y109629D01*
X56653Y115804D02*
Y121742D01*
X56632Y115782D02*
X56653Y115804D01*
Y121742D02*
X61976Y127065D01*
X58835Y109565D02*
Y109629D01*
Y109565D02*
X59942Y108459D01*
X53312Y101797D02*
Y117221D01*
X53239Y101725D02*
X56744Y105229D01*
X96036Y208335D02*
X96041Y208330D01*
X96036Y208335D02*
Y214811D01*
X96031Y214816D02*
X96036Y214811D01*
X62472Y159639D02*
Y215950D01*
X65247Y129681D02*
Y156864D01*
X62472Y159639D02*
X65247Y156864D01*
X62630Y127065D02*
X65247Y129681D01*
X61976Y127065D02*
X62630D01*
X63382Y120584D02*
X63416Y120550D01*
X66191D02*
X71869Y114871D01*
X63416Y120550D02*
X66191D01*
X60676Y107789D02*
X63382D01*
X96500Y54830D02*
Y57527D01*
X95919Y58108D02*
X96500Y57527D01*
X81836Y58108D02*
X95919D01*
X79994Y59950D02*
X81836Y58108D01*
X79781Y59950D02*
X79994D01*
X54917D02*
Y64000D01*
X79781Y113897D02*
X80756Y114871D01*
X79781Y112129D02*
Y113897D01*
X78000Y110348D02*
X79781Y112129D01*
X73847Y110348D02*
X78000D01*
X76617Y106748D02*
X78552Y104813D01*
X63382Y110348D02*
X68756D01*
X68743Y112907D02*
X73102Y108548D01*
X66088Y118025D02*
X66758Y117355D01*
X63382Y112907D02*
X68743D01*
X73102Y108548D02*
X87373D01*
X66758Y117355D02*
X66840D01*
X68756Y110348D02*
X72356Y106748D01*
X87373Y108548D02*
X93500Y114674D01*
X66840Y117355D02*
X73847Y110348D01*
X72356Y106748D02*
X76617D01*
X63382Y118025D02*
X66088D01*
X71869Y114871D02*
X75244D01*
X80756Y114871D02*
X87988D01*
X80756Y114871D02*
X80756Y114871D01*
X93591Y108644D02*
X93681Y108554D01*
X93591Y108644D02*
Y114584D01*
X93500Y114674D02*
X93591Y114584D01*
X56961Y131753D02*
Y131950D01*
X53312Y128105D02*
X56961Y131753D01*
X53312Y127101D02*
Y128105D01*
X53161Y126950D02*
X53312Y127101D01*
X63382Y97552D02*
X71290D01*
X78552Y104813D01*
X85807D01*
X89425Y97143D02*
X93841Y92728D01*
Y100914D01*
Y92531D02*
Y92728D01*
Y92531D02*
X94000Y92371D01*
X93681Y101073D02*
X93841Y100914D01*
X88488Y92371D02*
X88488Y92371D01*
X81756Y92371D02*
X88488D01*
X78981Y95343D02*
X81756Y92568D01*
X63382Y94993D02*
X71277D01*
X73427Y97143D02*
X89425D01*
X74172Y95343D02*
X78981D01*
X71277Y94993D02*
X73427Y97143D01*
X68704Y89875D02*
X74172Y95343D01*
X63382Y89875D02*
X68704D01*
X76244Y42706D02*
Y92174D01*
X63382Y87316D02*
X71386D01*
X76244Y92174D01*
Y92371D01*
X81756D02*
Y92568D01*
X56961Y88029D02*
Y89999D01*
X63348Y92400D02*
X63382Y92434D01*
X59362Y92400D02*
X63348D01*
X56961Y89999D02*
X59362Y92400D01*
X56961Y88029D02*
X61161Y83828D01*
Y64950D02*
Y83828D01*
X55039Y87174D02*
X59361Y82852D01*
Y15750D02*
X62661Y12450D01*
X59361Y15750D02*
Y82852D01*
X61161Y64950D02*
X69661Y56450D01*
X111500Y35342D02*
X115161D01*
X76244Y42706D02*
X80330Y38620D01*
X96500Y35342D02*
Y38039D01*
X95919Y38620D02*
X96500Y38039D01*
X80330Y38620D02*
X95919D01*
X55039Y98582D02*
X56569Y100111D01*
X63382D01*
X55039Y87174D02*
Y98582D01*
X55161Y83950D02*
Y84057D01*
X53239Y85979D02*
X55161Y84057D01*
X53239Y85979D02*
Y101725D01*
X111500Y-13D02*
X111537Y-50D01*
X115161D01*
X56852Y139558D02*
X56961Y139450D01*
X56852Y139558D02*
Y146892D01*
X56744Y147000D02*
X56852Y146892D01*
X40950Y131950D02*
X56961D01*
X40500Y131500D02*
X40950Y131950D01*
X56961D02*
Y139450D01*
X62472Y131950D02*
Y139450D01*
X40941Y118025D02*
X48744D01*
X62472Y131753D01*
Y131950D01*
X40941Y120584D02*
Y131059D01*
X40500Y131500D02*
X40941Y131059D01*
Y110348D02*
X43647D01*
X44317Y109678D01*
X44381D01*
X46661Y107397D01*
Y100503D02*
Y107397D01*
X40941Y97552D02*
X43647D01*
X44317Y98222D01*
X44381D01*
X46661Y100503D01*
X180663Y181426D02*
X181181Y180909D01*
X158161Y181426D02*
X180663D01*
X17461Y116950D02*
Y120584D01*
X17461Y120584D01*
X2961Y131950D02*
Y139450D01*
X8472Y131950D02*
X17461D01*
X8472Y139450D02*
X17461D01*
X35995Y115466D02*
X40941D01*
X22973Y116950D02*
Y124450D01*
X22972Y116950D02*
X22973Y116950D01*
X34661Y112907D02*
X40941D01*
X22973Y109450D02*
X28702D01*
X30363Y107789D01*
X40941D01*
X33764Y110348D02*
X40941D01*
X30661Y113450D02*
X33764Y110348D01*
X14161Y113450D02*
X30661D01*
X8472Y71950D02*
X17461D01*
X8472Y79450D02*
X17461D01*
X15110Y101950D02*
X17461D01*
X11610Y98450D02*
X15110Y101950D01*
X180785Y27013D02*
X181181Y27409D01*
X154661Y27013D02*
X180785D01*
X8472Y86950D02*
X13161D01*
X13161Y86950D01*
X15519Y97552D02*
X34661D01*
X12417Y94450D02*
X15519Y97552D01*
X17461Y94253D02*
Y94450D01*
X16486Y93278D02*
X17461Y94253D01*
X16289Y93278D02*
X16486D01*
X13863Y90853D02*
X16289Y93278D01*
X6361Y90853D02*
X13863D01*
X2961Y94253D02*
Y94450D01*
Y94253D02*
X6361Y90853D01*
X8177Y109450D02*
X17461D01*
X17461Y109450D01*
X3108Y109598D02*
X3256Y109450D01*
X3108Y109598D02*
Y116802D01*
X2961Y116950D02*
X3108Y116802D01*
Y102295D02*
Y109302D01*
Y102098D02*
Y102295D01*
X6043Y105229D01*
X2961Y101950D02*
X3108Y102098D01*
Y109302D02*
X3256Y109450D01*
X6043Y105229D02*
X40941D01*
X22973Y94450D02*
X23277Y94145D01*
Y90853D02*
Y94145D01*
Y90853D02*
X23428Y90702D01*
X31289Y100077D02*
X40907D01*
X31161Y99950D02*
X31289Y100077D01*
X22972Y101950D02*
X27661D01*
X35661Y94993D02*
X40941D01*
X22973Y94450D02*
X35118D01*
X35661Y94993D01*
X57661Y97552D02*
X63382D01*
X8472Y94450D02*
X12417D01*
X13161Y116950D02*
X13312Y116799D01*
Y114299D02*
Y116799D01*
Y114299D02*
X14161Y113450D01*
X56744Y105229D02*
X63382D01*
X40941Y89875D02*
X47661D01*
X49406Y79450D02*
Y88131D01*
X47661Y89875D02*
X49406Y88131D01*
X54917Y79450D02*
X55039Y79572D01*
Y83828D01*
X55161Y83950D01*
X8472Y116950D02*
X8472Y116950D01*
X13161D01*
X40907Y100077D02*
X40941Y100111D01*
X22973Y86950D02*
X31161D01*
X31161Y86950D01*
D43*
X234347Y-7050D02*
D03*
Y22450D02*
D03*
X236315Y175950D02*
D03*
Y205450D02*
D03*
D44*
X234347Y2950D02*
D03*
Y32450D02*
D03*
X236315Y185950D02*
D03*
Y215450D02*
D03*
D45*
X233161Y82556D02*
D03*
X243161Y87950D02*
D03*
X233161Y93344D02*
D03*
X243161Y98737D02*
D03*
X233161Y104131D02*
D03*
X243161Y109525D02*
D03*
X233161Y114918D02*
D03*
X243161Y120312D02*
D03*
X233161Y125706D02*
D03*
D46*
X238192Y54931D02*
D03*
Y153331D02*
D03*
D47*
X0Y0D02*
D03*
X208661D02*
D03*
Y208661D02*
D03*
X0D02*
D03*
D48*
X264669Y157970D02*
D03*
X270575Y146159D02*
D03*
Y98914D02*
D03*
X264669Y87103D02*
D03*
X270575Y75292D02*
D03*
X264669Y63481D02*
D03*
X270575Y51670D02*
D03*
X252858Y157970D02*
D03*
X258764Y146159D02*
D03*
Y98914D02*
D03*
X252858Y87103D02*
D03*
X258764Y75292D02*
D03*
X252858Y63481D02*
D03*
X258764Y51670D02*
D03*
X246953Y146159D02*
D03*
Y75292D02*
D03*
X241047Y63481D02*
D03*
X246953Y51670D02*
D03*
X229236Y157970D02*
D03*
X235142Y146159D02*
D03*
Y98914D02*
D03*
X229236Y87103D02*
D03*
X235142Y75292D02*
D03*
X229236Y63481D02*
D03*
X217425Y157970D02*
D03*
X223331Y146159D02*
D03*
Y98914D02*
D03*
X217425Y87103D02*
D03*
X223331Y75292D02*
D03*
X217425Y63481D02*
D03*
X223331Y51670D02*
D03*
X211520Y98914D02*
D03*
Y75292D02*
D03*
X193803Y157970D02*
D03*
X199708Y146159D02*
D03*
X193803Y87103D02*
D03*
X199708Y75292D02*
D03*
X193803Y63481D02*
D03*
X199708Y51670D02*
D03*
X193803Y-7385D02*
D03*
X187898Y217025D02*
D03*
X181992Y205214D02*
D03*
Y157970D02*
D03*
X187898Y146159D02*
D03*
Y98914D02*
D03*
X181992Y87103D02*
D03*
X187898Y75292D02*
D03*
X181992Y63481D02*
D03*
X187898Y51670D02*
D03*
Y4426D02*
D03*
X181992Y-7385D02*
D03*
X176086Y217025D02*
D03*
X170181Y205214D02*
D03*
Y157970D02*
D03*
X176086Y146159D02*
D03*
X170181Y87103D02*
D03*
X176086Y75292D02*
D03*
X170181Y63481D02*
D03*
X176086Y51670D02*
D03*
Y4426D02*
D03*
X170181Y-7385D02*
D03*
X164276Y217025D02*
D03*
X158370Y205214D02*
D03*
X164276Y146159D02*
D03*
Y98914D02*
D03*
Y75292D02*
D03*
Y51670D02*
D03*
Y4426D02*
D03*
X158370Y-7385D02*
D03*
X152464Y217025D02*
D03*
X146559Y205214D02*
D03*
X152464Y4426D02*
D03*
X146559Y-7385D02*
D03*
X140653Y217025D02*
D03*
X134748Y205214D02*
D03*
X140653Y4426D02*
D03*
X134748Y-7385D02*
D03*
X128842Y217025D02*
D03*
X122937Y205214D02*
D03*
X128842Y4426D02*
D03*
X122937Y-7385D02*
D03*
X117031Y217025D02*
D03*
Y4426D02*
D03*
X111126Y-7385D02*
D03*
X105220Y217025D02*
D03*
X99315Y-7385D02*
D03*
X87504Y205214D02*
D03*
X93409Y4426D02*
D03*
X87504Y-7385D02*
D03*
X75693D02*
D03*
X11045Y66106D02*
D03*
X40907Y83950D02*
D03*
X56161Y27013D02*
D03*
X45661Y63950D02*
D03*
X69040Y102671D02*
D03*
X35661D02*
D03*
X17461Y83828D02*
D03*
X62472Y150450D02*
D03*
X40500D02*
D03*
X28702Y131753D02*
D03*
X57040Y181426D02*
D03*
X13312Y124450D02*
D03*
X8177Y112907D02*
D03*
X2961Y143311D02*
D03*
X92161Y172950D02*
D03*
X72356Y159639D02*
D03*
X53312Y117221D02*
D03*
X96031Y214816D02*
D03*
X62472Y215950D02*
D03*
X79781Y59950D02*
D03*
X54917D02*
D03*
X53161Y126950D02*
D03*
X69661Y56450D02*
D03*
X115161Y35342D02*
D03*
X62661Y12450D02*
D03*
X115161Y-50D02*
D03*
X158161Y181426D02*
D03*
X17461Y120584D02*
D03*
X11610Y98450D02*
D03*
X154661Y27013D02*
D03*
X13161Y86950D02*
D03*
X27661Y79450D02*
D03*
X23428Y90702D02*
D03*
X27661Y92256D02*
D03*
X31161Y99950D02*
D03*
X34661Y97552D02*
D03*
X27661Y101950D02*
D03*
X57661Y97552D02*
D03*
X55161Y83950D02*
D03*
X13161Y116950D02*
D03*
X31161Y86950D02*
D03*
M02*
