M48
;Layer_Color=9474304
;FILE_FORMAT=2:5
INCH,LZ
;TYPE=PLATED
T1F00S00C0.00787
T2F00S00C0.03500
T3F00S00C0.04291
T4F00S00C0.10000
T5F00S00C0.12800
%
T01
X0146559Y-0007385
X015837
X0170181
X0181992
X0193803
X0187898Y0004426
X0176086
X0164276
X0152464
X0140653
X0154661Y0027013
X0164276Y005167
X0176086
X0187898
X0199708
X0193803Y0063481
X0181992
X0170181
X0176086Y0075292
X0187898
X0199708
X021152
X0223331
X0235142
X0246953
X0258764
X0270575
X0264669Y0087103
X0252858
X0258764Y0098914
X0270575
X0235142
X0223331
X021152
X0217425Y0087103
X0229236
Y0063481
X0241047
X0252858
X0264669
X0270575Y005167
X0258764
X0246953
X0223331
X0217425Y0063481
X0193803Y0087103
X0181992
X0170181
X0164276Y0098914
X0187898
X0164276Y0075292
X0115161Y0035342
X0117031Y0004426
X0115161Y-000005
X0111126Y-0007385
X0122937
X0134748
X0128842Y0004426
X0093409
X0099315Y-0007385
X0087504
X0075693
X0062661Y001245
X0056161Y0027013
X0054917Y005995
X0045661Y006395
X0040907Y008395
X0031161Y008695
X0027661Y0092256
X0023428Y0090702
X0017461Y0083828
X0013161Y008695
X001161Y009845
X0008177Y0112907
X0013161Y011695
X0013312Y012445
X0017461Y0120584
X0027661Y010195
X0031161Y009995
X0034661Y0097552
X0035661Y0102671
X0057661Y0097552
X0055161Y008395
X0027661Y007945
X0011045Y0066106
X0069661Y005645
X0079781Y005995
X006904Y0102671
X0053312Y0117221
X0053161Y012695
X0028702Y0131753
X00405Y015045
X0062472
X0072356Y0159639
X0092161Y017295
X0087504Y0205214
X0096031Y0214816
X010522Y0217025
X0117031
X0128842
X0134748Y0205214
X0122937
X0062472Y021595
X005704Y0181426
X0002961Y0143311
X0164276Y0146159
X0176086
X0187898
X0199708
X0193803Y015797
X0181992
X0170181
X0158161Y0181426
X015837Y0205214
X0170181
X0181992
X0187898Y0217025
X0176086
X0164276
X0152464
X0140653
X0146559Y0205214
X0217425Y015797
X0229236
X0235142Y0146159
X0246953
X0258764
X0270575
X0264669Y015797
X0252858
X0223331Y0146159
T02
X0233161Y0082556
Y0093344
Y0104131
Y0114918
Y0125706
X0243161Y0120312
Y0109525
Y0098737
Y008795
T03
X0234347Y-000705
Y000295
Y002245
Y003245
X0236315Y017595
Y018595
Y020545
Y021545
T04
X0238192Y0054931
Y0153331
T05
X0208661Y0
X0
Y0208661
X0208661
M30
