G04*
G04 #@! TF.GenerationSoftware,Altium Limited,Altium Designer,20.0.11 (256)*
G04*
G04 Layer_Physical_Order=2*
G04 Layer_Color=16711680*
%FSLAX25Y25*%
%MOIN*%
G70*
G01*
G75*
%ADD14C,0.01000*%
%ADD42C,0.01200*%
%ADD43C,0.07047*%
%ADD44R,0.07047X0.07047*%
%ADD45C,0.05500*%
%ADD46C,0.10000*%
%ADD47C,0.29134*%
%ADD48C,0.01987*%
G36*
X285689Y-19239D02*
X161Y-19239D01*
X-331Y-19239D01*
X-339Y-19238D01*
X-828Y-19213D01*
X-2909Y-19077D01*
X-5436Y-18574D01*
X-7876Y-17746D01*
X-10186Y-16607D01*
X-12328Y-15175D01*
X-14265Y-13477D01*
X-15964Y-11540D01*
X-17395Y-9398D01*
X-18535Y-7087D01*
X-19363Y-4648D01*
X-19865Y-2121D01*
X-20002Y-40D01*
X-20026Y450D01*
X-20028Y458D01*
X-20028Y950D01*
X-20028Y208442D01*
X-20026Y208450D01*
X-20026D01*
X-20001Y208940D01*
X-19869Y210955D01*
X-19379Y213418D01*
X-18572Y215795D01*
X-17461Y218047D01*
X-16066Y220135D01*
X-14411Y222022D01*
X-12523Y223678D01*
X-10436Y225073D01*
X-8184Y226183D01*
X-5806Y226990D01*
X-3344Y227480D01*
X-1328Y227612D01*
X-839Y227638D01*
X-831Y227639D01*
X-339Y227639D01*
X285689Y227639D01*
X285689Y-19239D01*
D02*
G37*
%LPC*%
G36*
X62472Y217575D02*
X61851Y217451D01*
X61323Y217099D01*
X60971Y216572D01*
X60848Y215950D01*
X60971Y215328D01*
X61323Y214801D01*
X61851Y214449D01*
X62472Y214325D01*
X63094Y214449D01*
X63512Y214728D01*
X94424D01*
X94530Y214194D01*
X94882Y213667D01*
X95409Y213315D01*
X96031Y213191D01*
X96653Y213315D01*
X97180Y213667D01*
X97532Y214194D01*
X97656Y214816D01*
X97532Y215438D01*
X97180Y215965D01*
X96653Y216317D01*
X96490Y216350D01*
X96025Y216814D01*
X95629Y217079D01*
X95161Y217172D01*
X63512D01*
X63094Y217451D01*
X62472Y217575D01*
D02*
G37*
G36*
X240439Y219574D02*
X232191D01*
Y211326D01*
X240439D01*
Y219574D01*
D02*
G37*
G36*
X208661Y223875D02*
X206281Y223688D01*
X203960Y223131D01*
X201754Y222217D01*
X199719Y220970D01*
X197904Y219419D01*
X196353Y217604D01*
X195106Y215568D01*
X194192Y213363D01*
X193635Y211041D01*
X193448Y208661D01*
X193635Y206281D01*
X194192Y203960D01*
X195106Y201754D01*
X196353Y199719D01*
X197904Y197904D01*
X199719Y196353D01*
X201754Y195106D01*
X203960Y194192D01*
X206281Y193635D01*
X208661Y193448D01*
X211041Y193635D01*
X213363Y194192D01*
X215568Y195106D01*
X217604Y196353D01*
X219419Y197904D01*
X220970Y199719D01*
X222217Y201754D01*
X223131Y203960D01*
X223688Y206281D01*
X223875Y208661D01*
X223688Y211041D01*
X223131Y213363D01*
X222217Y215568D01*
X220970Y217604D01*
X219419Y219419D01*
X217604Y220970D01*
X215568Y222217D01*
X213363Y223131D01*
X211041Y223688D01*
X208661Y223875D01*
D02*
G37*
G36*
X0D02*
X-2380Y223688D01*
X-4701Y223131D01*
X-6907Y222217D01*
X-8942Y220970D01*
X-10758Y219419D01*
X-12308Y217604D01*
X-13556Y215568D01*
X-14469Y213363D01*
X-15026Y211041D01*
X-15214Y208661D01*
X-15026Y206281D01*
X-14469Y203960D01*
X-13556Y201754D01*
X-12308Y199719D01*
X-10758Y197904D01*
X-8942Y196353D01*
X-6907Y195106D01*
X-4701Y194192D01*
X-2380Y193635D01*
X0Y193448D01*
X2380Y193635D01*
X4701Y194192D01*
X6907Y195106D01*
X8942Y196353D01*
X10758Y197904D01*
X12308Y199719D01*
X13556Y201754D01*
X14469Y203960D01*
X15026Y206281D01*
X15214Y208661D01*
X15026Y211041D01*
X14469Y213363D01*
X13556Y215568D01*
X12308Y217604D01*
X10758Y219419D01*
X8942Y220970D01*
X6907Y222217D01*
X4701Y223131D01*
X2380Y223688D01*
X0Y223875D01*
D02*
G37*
G36*
X158161Y183051D02*
X157540Y182928D01*
X157122Y182648D01*
X58079D01*
X57661Y182928D01*
X57040Y183051D01*
X56418Y182928D01*
X55891Y182575D01*
X55538Y182048D01*
X55415Y181426D01*
X55538Y180805D01*
X55891Y180277D01*
X56418Y179925D01*
X57040Y179801D01*
X57661Y179925D01*
X58079Y180204D01*
X157122D01*
X157540Y179925D01*
X158161Y179801D01*
X158783Y179925D01*
X159310Y180277D01*
X159663Y180805D01*
X159786Y181426D01*
X159663Y182048D01*
X159310Y182575D01*
X158783Y182928D01*
X158161Y183051D01*
D02*
G37*
G36*
X240439Y190074D02*
X232191D01*
Y181826D01*
X240439D01*
Y190074D01*
D02*
G37*
G36*
X92161Y174575D02*
X91540Y174451D01*
X91122Y174172D01*
X85667D01*
X85200Y174079D01*
X84803Y173814D01*
X72227Y161238D01*
X71734Y161140D01*
X71207Y160788D01*
X70855Y160261D01*
X70731Y159639D01*
X70855Y159017D01*
X71207Y158490D01*
X71734Y158138D01*
X72356Y158014D01*
X72978Y158138D01*
X73505Y158490D01*
X73857Y159017D01*
X73956Y159510D01*
X86173Y171728D01*
X91122D01*
X91540Y171449D01*
X92161Y171325D01*
X92783Y171449D01*
X93310Y171801D01*
X93663Y172328D01*
X93786Y172950D01*
X93663Y173572D01*
X93310Y174099D01*
X92783Y174451D01*
X92161Y174575D01*
D02*
G37*
G36*
X238192Y158979D02*
X236730Y158787D01*
X235368Y158223D01*
X234198Y157325D01*
X233300Y156155D01*
X232736Y154793D01*
X232544Y153331D01*
X232736Y151869D01*
X233300Y150507D01*
X234198Y149337D01*
X235368Y148440D01*
X236730Y147875D01*
X238192Y147683D01*
X239654Y147875D01*
X241016Y148440D01*
X242186Y149337D01*
X243084Y150507D01*
X243648Y151869D01*
X243841Y153331D01*
X243648Y154793D01*
X243084Y156155D01*
X242186Y157325D01*
X241016Y158223D01*
X239654Y158787D01*
X238192Y158979D01*
D02*
G37*
G36*
X233161Y129085D02*
X232287Y128970D01*
X231472Y128632D01*
X230772Y128095D01*
X230235Y127395D01*
X229898Y126580D01*
X229783Y125706D01*
X229898Y124831D01*
X230235Y124016D01*
X230772Y123317D01*
X231472Y122780D01*
X232287Y122442D01*
X233161Y122327D01*
X234036Y122442D01*
X234851Y122780D01*
X235551Y123317D01*
X236088Y124016D01*
X236425Y124831D01*
X236540Y125706D01*
X236425Y126580D01*
X236088Y127395D01*
X235551Y128095D01*
X234851Y128632D01*
X234036Y128970D01*
X233161Y129085D01*
D02*
G37*
G36*
X28702Y133378D02*
X28080Y133254D01*
X27553Y132902D01*
X27201Y132375D01*
X27112Y131927D01*
X17377Y122192D01*
X16839Y122085D01*
X16312Y121733D01*
X15959Y121206D01*
X15836Y120584D01*
X15959Y119962D01*
X16312Y119435D01*
X16839Y119083D01*
X17461Y118959D01*
X18082Y119083D01*
X18610Y119435D01*
X18962Y119962D01*
X19051Y120410D01*
X28786Y130145D01*
X29324Y130252D01*
X29851Y130604D01*
X30203Y131131D01*
X30327Y131753D01*
X30203Y132375D01*
X29851Y132902D01*
X29324Y133254D01*
X28702Y133378D01*
D02*
G37*
G36*
X243161Y123691D02*
X242287Y123576D01*
X241472Y123238D01*
X240772Y122701D01*
X240235Y122002D01*
X239898Y121187D01*
X239783Y120312D01*
X239898Y119438D01*
X240235Y118623D01*
X240772Y117923D01*
X241472Y117386D01*
X242287Y117048D01*
X243161Y116933D01*
X244036Y117048D01*
X244851Y117386D01*
X245551Y117923D01*
X246088Y118623D01*
X246425Y119438D01*
X246540Y120312D01*
X246425Y121187D01*
X246088Y122002D01*
X245551Y122701D01*
X244851Y123238D01*
X244036Y123576D01*
X243161Y123691D01*
D02*
G37*
G36*
X53161Y128575D02*
X52540Y128451D01*
X52012Y128099D01*
X51660Y127572D01*
X51537Y126950D01*
X51660Y126328D01*
X52012Y125801D01*
X52090Y125749D01*
Y118261D01*
X51811Y117843D01*
X51687Y117221D01*
X51811Y116599D01*
X52163Y116072D01*
X52690Y115720D01*
X53312Y115596D01*
X53934Y115720D01*
X54461Y116072D01*
X54813Y116599D01*
X54937Y117221D01*
X54813Y117843D01*
X54534Y118261D01*
Y126136D01*
X54663Y126328D01*
X54786Y126950D01*
X54663Y127572D01*
X54310Y128099D01*
X53783Y128451D01*
X53161Y128575D01*
D02*
G37*
G36*
X233161Y118297D02*
X232287Y118182D01*
X231472Y117845D01*
X230772Y117308D01*
X230235Y116608D01*
X229898Y115793D01*
X229783Y114918D01*
X229898Y114044D01*
X230235Y113229D01*
X230772Y112529D01*
X231472Y111992D01*
X232287Y111655D01*
X233161Y111540D01*
X234036Y111655D01*
X234851Y111992D01*
X235551Y112529D01*
X236088Y113229D01*
X236425Y114044D01*
X236540Y114918D01*
X236425Y115793D01*
X236088Y116608D01*
X235551Y117308D01*
X234851Y117845D01*
X234036Y118182D01*
X233161Y118297D01*
D02*
G37*
G36*
X243161Y112904D02*
X242287Y112789D01*
X241472Y112451D01*
X240772Y111914D01*
X240235Y111214D01*
X239898Y110399D01*
X239783Y109525D01*
X239898Y108650D01*
X240235Y107835D01*
X240772Y107135D01*
X241472Y106599D01*
X242287Y106261D01*
X243161Y106146D01*
X244036Y106261D01*
X244851Y106599D01*
X245551Y107135D01*
X246088Y107835D01*
X246425Y108650D01*
X246540Y109525D01*
X246425Y110399D01*
X246088Y111214D01*
X245551Y111914D01*
X244851Y112451D01*
X244036Y112789D01*
X243161Y112904D01*
D02*
G37*
G36*
X13161Y118575D02*
X12540Y118451D01*
X12012Y118099D01*
X11660Y117572D01*
X11536Y116950D01*
X11660Y116328D01*
X12012Y115801D01*
X12540Y115449D01*
X12641Y115428D01*
Y100233D01*
X12141Y99969D01*
X11610Y100075D01*
X10988Y99951D01*
X10461Y99599D01*
X10109Y99072D01*
X9998Y98513D01*
X9839Y98275D01*
X9746Y97808D01*
Y67030D01*
X9544Y66727D01*
X9420Y66106D01*
X9544Y65484D01*
X9896Y64957D01*
X10423Y64604D01*
X11045Y64481D01*
X11666Y64604D01*
X12194Y64957D01*
X12546Y65484D01*
X12670Y66106D01*
X12546Y66727D01*
X12194Y67255D01*
X12190Y67257D01*
Y85127D01*
X12690Y85419D01*
X13161Y85325D01*
X13783Y85449D01*
X14310Y85801D01*
X14663Y86328D01*
X14786Y86950D01*
X14765Y87057D01*
X14992Y87397D01*
X15085Y87865D01*
Y116035D01*
X14992Y116503D01*
X14765Y116843D01*
X14786Y116950D01*
X14663Y117572D01*
X14310Y118099D01*
X13783Y118451D01*
X13161Y118575D01*
D02*
G37*
G36*
X57661Y99177D02*
X57040Y99054D01*
X56622Y98774D01*
X35701D01*
X35283Y99054D01*
X34661Y99177D01*
X34040Y99054D01*
X33512Y98701D01*
X33160Y98174D01*
X33037Y97552D01*
X33160Y96930D01*
X33512Y96403D01*
X34040Y96051D01*
X34661Y95927D01*
X35283Y96051D01*
X35701Y96330D01*
X56622D01*
X57040Y96051D01*
X57661Y95927D01*
X58283Y96051D01*
X58810Y96403D01*
X59163Y96930D01*
X59286Y97552D01*
X59163Y98174D01*
X58810Y98701D01*
X58283Y99054D01*
X57661Y99177D01*
D02*
G37*
G36*
X27661Y103575D02*
X27040Y103451D01*
X26512Y103099D01*
X26160Y102572D01*
X26062Y102079D01*
X22297Y98314D01*
X22032Y97918D01*
X21939Y97450D01*
Y91343D01*
X21926Y91324D01*
X21803Y90702D01*
X21926Y90080D01*
X22279Y89553D01*
X22806Y89201D01*
X23428Y89077D01*
X24049Y89201D01*
X24577Y89553D01*
X24929Y90080D01*
X25053Y90702D01*
X24929Y91324D01*
X24577Y91851D01*
X24383Y91980D01*
Y96944D01*
X27790Y100351D01*
X28283Y100449D01*
X28810Y100801D01*
X29163Y101328D01*
X29286Y101950D01*
X29163Y102572D01*
X28810Y103099D01*
X28283Y103451D01*
X27661Y103575D01*
D02*
G37*
G36*
X31161Y101575D02*
X30540Y101451D01*
X30012Y101099D01*
X29660Y100572D01*
X29537Y99950D01*
X29660Y99328D01*
X29939Y98910D01*
Y87990D01*
X29660Y87572D01*
X29537Y86950D01*
X29660Y86328D01*
X30012Y85801D01*
X30540Y85449D01*
X31161Y85325D01*
X31783Y85449D01*
X32310Y85801D01*
X32663Y86328D01*
X32786Y86950D01*
X32663Y87572D01*
X32383Y87990D01*
Y98910D01*
X32663Y99328D01*
X32786Y99950D01*
X32663Y100572D01*
X32310Y101099D01*
X31783Y101451D01*
X31161Y101575D01*
D02*
G37*
G36*
X55161Y85575D02*
X54540Y85451D01*
X54122Y85172D01*
X41947D01*
X41529Y85451D01*
X40907Y85575D01*
X40285Y85451D01*
X39758Y85099D01*
X39406Y84572D01*
X39282Y83950D01*
X39406Y83328D01*
X39758Y82801D01*
X40285Y82449D01*
X40907Y82325D01*
X41529Y82449D01*
X41947Y82728D01*
X54122D01*
X54540Y82449D01*
X55161Y82325D01*
X55783Y82449D01*
X56310Y82801D01*
X56663Y83328D01*
X56786Y83950D01*
X56663Y84572D01*
X56310Y85099D01*
X55783Y85451D01*
X55161Y85575D01*
D02*
G37*
G36*
X27661Y93881D02*
X27040Y93757D01*
X26512Y93405D01*
X26160Y92878D01*
X26037Y92256D01*
X26160Y91635D01*
X26512Y91107D01*
X26542Y91088D01*
Y80618D01*
X26512Y80599D01*
X26160Y80072D01*
X26037Y79450D01*
X26160Y78828D01*
X26512Y78301D01*
X27040Y77949D01*
X27661Y77825D01*
X28283Y77949D01*
X28810Y78301D01*
X29163Y78828D01*
X29286Y79450D01*
X29163Y80072D01*
X28810Y80599D01*
X28781Y80618D01*
Y91088D01*
X28810Y91107D01*
X29163Y91635D01*
X29286Y92256D01*
X29163Y92878D01*
X28810Y93405D01*
X28283Y93757D01*
X27661Y93881D01*
D02*
G37*
G36*
X79781Y61575D02*
X79159Y61451D01*
X78741Y61172D01*
X55957D01*
X55539Y61451D01*
X54917Y61575D01*
X54295Y61451D01*
X53768Y61099D01*
X53416Y60572D01*
X53292Y59950D01*
X53416Y59328D01*
X53768Y58801D01*
X54295Y58449D01*
X54917Y58325D01*
X55539Y58449D01*
X55957Y58728D01*
X78741D01*
X79159Y58449D01*
X79781Y58325D01*
X80403Y58449D01*
X80930Y58801D01*
X81282Y59328D01*
X81406Y59950D01*
X81282Y60572D01*
X80930Y61099D01*
X80403Y61451D01*
X79781Y61575D01*
D02*
G37*
G36*
X238192Y60579D02*
X236730Y60387D01*
X235368Y59823D01*
X234198Y58925D01*
X233300Y57755D01*
X232736Y56393D01*
X232544Y54931D01*
X232736Y53469D01*
X233300Y52107D01*
X234198Y50937D01*
X235368Y50039D01*
X236730Y49475D01*
X238192Y49283D01*
X239654Y49475D01*
X241016Y50039D01*
X242186Y50937D01*
X243084Y52107D01*
X243648Y53469D01*
X243841Y54931D01*
X243648Y56393D01*
X243084Y57755D01*
X242186Y58925D01*
X241016Y59823D01*
X239654Y60387D01*
X238192Y60579D01*
D02*
G37*
G36*
X69661Y58075D02*
X69040Y57951D01*
X68512Y57599D01*
X68160Y57072D01*
X68037Y56450D01*
X68160Y55828D01*
X68512Y55301D01*
X69040Y54949D01*
X69661Y54825D01*
X70283Y54949D01*
X70701Y55228D01*
X93547D01*
X113562Y35213D01*
X113660Y34720D01*
X114012Y34193D01*
X114540Y33841D01*
X115161Y33717D01*
X115783Y33841D01*
X116310Y34193D01*
X116663Y34720D01*
X116786Y35342D01*
X116663Y35963D01*
X116310Y36491D01*
X115783Y36843D01*
X115290Y36941D01*
X94917Y57314D01*
X94521Y57579D01*
X94053Y57672D01*
X70701D01*
X70283Y57951D01*
X69661Y58075D01*
D02*
G37*
G36*
X154661Y28638D02*
X154040Y28514D01*
X153622Y28235D01*
X57201D01*
X56783Y28514D01*
X56161Y28638D01*
X55540Y28514D01*
X55012Y28162D01*
X54660Y27635D01*
X54536Y27013D01*
X54660Y26391D01*
X55012Y25864D01*
X55540Y25511D01*
X56161Y25388D01*
X56783Y25511D01*
X57201Y25791D01*
X153622D01*
X154040Y25511D01*
X154661Y25388D01*
X155283Y25511D01*
X155810Y25864D01*
X156163Y26391D01*
X156286Y27013D01*
X156163Y27635D01*
X155810Y28162D01*
X155283Y28514D01*
X154661Y28638D01*
D02*
G37*
G36*
X234347Y26609D02*
X233270Y26467D01*
X232267Y26052D01*
X231405Y25391D01*
X230745Y24530D01*
X230329Y23527D01*
X230187Y22450D01*
X230329Y21373D01*
X230745Y20370D01*
X231405Y19509D01*
X232267Y18848D01*
X233270Y18432D01*
X234347Y18291D01*
X235423Y18432D01*
X236426Y18848D01*
X237287Y19509D01*
X237948Y20370D01*
X238364Y21373D01*
X238506Y22450D01*
X238364Y23527D01*
X237948Y24530D01*
X237287Y25391D01*
X236426Y26052D01*
X235423Y26467D01*
X234347Y26609D01*
D02*
G37*
G36*
X62661Y14075D02*
X62040Y13951D01*
X61512Y13599D01*
X61160Y13072D01*
X61036Y12450D01*
X61160Y11828D01*
X61512Y11301D01*
X62040Y10949D01*
X62661Y10825D01*
X63283Y10949D01*
X63701Y11228D01*
X102155D01*
X113562Y-179D01*
X113660Y-672D01*
X114012Y-1199D01*
X114540Y-1551D01*
X115161Y-1675D01*
X115783Y-1551D01*
X116310Y-1199D01*
X116663Y-672D01*
X116786Y-50D01*
X116663Y572D01*
X116310Y1099D01*
X115783Y1451D01*
X115290Y1549D01*
X103525Y13314D01*
X103129Y13579D01*
X102661Y13672D01*
X63701D01*
X63283Y13951D01*
X62661Y14075D01*
D02*
G37*
G36*
X234347Y-2891D02*
X233270Y-3032D01*
X232267Y-3448D01*
X231405Y-4109D01*
X230745Y-4970D01*
X230329Y-5974D01*
X230187Y-7050D01*
X230329Y-8127D01*
X230745Y-9130D01*
X231405Y-9991D01*
X232267Y-10652D01*
X233270Y-11067D01*
X234347Y-11209D01*
X235423Y-11067D01*
X236426Y-10652D01*
X237287Y-9991D01*
X237948Y-9130D01*
X238364Y-8127D01*
X238506Y-7050D01*
X238364Y-5974D01*
X237948Y-4970D01*
X237287Y-4109D01*
X236426Y-3448D01*
X235423Y-3032D01*
X234347Y-2891D01*
D02*
G37*
G36*
X208661Y15214D02*
X206281Y15026D01*
X203960Y14469D01*
X201754Y13556D01*
X199719Y12308D01*
X197904Y10758D01*
X196353Y8942D01*
X195106Y6907D01*
X194192Y4701D01*
X193635Y2380D01*
X193448Y0D01*
X193635Y-2380D01*
X194192Y-4701D01*
X195106Y-6907D01*
X196353Y-8942D01*
X197904Y-10758D01*
X199719Y-12308D01*
X201754Y-13556D01*
X203960Y-14469D01*
X206281Y-15026D01*
X208661Y-15214D01*
X211041Y-15026D01*
X213363Y-14469D01*
X215568Y-13556D01*
X217604Y-12308D01*
X219419Y-10758D01*
X220970Y-8942D01*
X222217Y-6907D01*
X223131Y-4701D01*
X223688Y-2380D01*
X223875Y0D01*
X223688Y2380D01*
X223131Y4701D01*
X222217Y6907D01*
X220970Y8942D01*
X219419Y10758D01*
X217604Y12308D01*
X215568Y13556D01*
X213363Y14469D01*
X211041Y15026D01*
X208661Y15214D01*
D02*
G37*
G36*
X0D02*
X-2380Y15026D01*
X-4701Y14469D01*
X-6907Y13556D01*
X-8942Y12308D01*
X-10758Y10758D01*
X-12308Y8942D01*
X-13556Y6907D01*
X-14469Y4701D01*
X-15026Y2380D01*
X-15214Y0D01*
X-15026Y-2380D01*
X-14469Y-4701D01*
X-13556Y-6907D01*
X-12308Y-8942D01*
X-10758Y-10758D01*
X-8942Y-12308D01*
X-6907Y-13556D01*
X-4701Y-14469D01*
X-2380Y-15026D01*
X0Y-15214D01*
X2380Y-15026D01*
X4701Y-14469D01*
X6907Y-13556D01*
X8942Y-12308D01*
X10758Y-10758D01*
X12308Y-8942D01*
X13556Y-6907D01*
X14469Y-4701D01*
X15026Y-2380D01*
X15214Y0D01*
X15026Y2380D01*
X14469Y4701D01*
X13556Y6907D01*
X12308Y8942D01*
X10758Y10758D01*
X8942Y12308D01*
X6907Y13556D01*
X4701Y14469D01*
X2380Y15026D01*
X0Y15214D01*
D02*
G37*
%LPD*%
D14*
X27661Y79450D02*
Y92256D01*
D42*
X10968Y66183D02*
X11045Y66106D01*
X40907Y83950D02*
X55161D01*
X56161Y27013D02*
X154661D01*
X28666Y131753D02*
X28702D01*
X17497Y120584D02*
X28666Y131753D01*
X17461Y120584D02*
X17497D01*
X72356Y159639D02*
X85667Y172950D01*
X92161D01*
X53161Y126950D02*
X53312Y126799D01*
Y117221D02*
Y126799D01*
X96031Y214816D02*
Y214820D01*
X96161Y214950D01*
X62472Y215950D02*
X95161D01*
X96161Y214950D01*
X54917Y59950D02*
X79781D01*
X94053Y56450D02*
X115161Y35342D01*
X69661Y56450D02*
X94053D01*
X10968Y66183D02*
Y97808D01*
X102661Y12450D02*
X115161Y-50D01*
X62661Y12450D02*
X102661D01*
X57040Y181426D02*
X158161D01*
X10968Y97808D02*
X11610Y98450D01*
X13161Y116737D02*
Y116950D01*
Y116737D02*
X13863Y116035D01*
Y87865D02*
Y116035D01*
X13161Y87163D02*
X13863Y87865D01*
X13161Y86950D02*
Y87163D01*
X23161Y90968D02*
X23428Y90702D01*
X23161Y97450D02*
X27661Y101950D01*
X23161Y90968D02*
Y97450D01*
X31161Y86950D02*
Y99950D01*
X34661Y97552D02*
X57661D01*
D43*
X234347Y-7050D02*
D03*
Y22450D02*
D03*
X236315Y175950D02*
D03*
Y205450D02*
D03*
D44*
X234347Y2950D02*
D03*
Y32450D02*
D03*
X236315Y185950D02*
D03*
Y215450D02*
D03*
D45*
X233161Y82556D02*
D03*
X243161Y87950D02*
D03*
X233161Y93344D02*
D03*
X243161Y98737D02*
D03*
X233161Y104131D02*
D03*
X243161Y109525D02*
D03*
X233161Y114918D02*
D03*
X243161Y120312D02*
D03*
X233161Y125706D02*
D03*
D46*
X238192Y54931D02*
D03*
Y153331D02*
D03*
D47*
X0Y0D02*
D03*
X208661D02*
D03*
Y208661D02*
D03*
X0D02*
D03*
D48*
X264669Y157970D02*
D03*
X270575Y146159D02*
D03*
Y98914D02*
D03*
X264669Y87103D02*
D03*
X270575Y75292D02*
D03*
X264669Y63481D02*
D03*
X270575Y51670D02*
D03*
X252858Y157970D02*
D03*
X258764Y146159D02*
D03*
Y98914D02*
D03*
X252858Y87103D02*
D03*
X258764Y75292D02*
D03*
X252858Y63481D02*
D03*
X258764Y51670D02*
D03*
X246953Y146159D02*
D03*
Y75292D02*
D03*
X241047Y63481D02*
D03*
X246953Y51670D02*
D03*
X229236Y157970D02*
D03*
X235142Y146159D02*
D03*
Y98914D02*
D03*
X229236Y87103D02*
D03*
X235142Y75292D02*
D03*
X229236Y63481D02*
D03*
X217425Y157970D02*
D03*
X223331Y146159D02*
D03*
Y98914D02*
D03*
X217425Y87103D02*
D03*
X223331Y75292D02*
D03*
X217425Y63481D02*
D03*
X223331Y51670D02*
D03*
X211520Y98914D02*
D03*
Y75292D02*
D03*
X193803Y157970D02*
D03*
X199708Y146159D02*
D03*
X193803Y87103D02*
D03*
X199708Y75292D02*
D03*
X193803Y63481D02*
D03*
X199708Y51670D02*
D03*
X193803Y-7385D02*
D03*
X187898Y217025D02*
D03*
X181992Y205214D02*
D03*
Y157970D02*
D03*
X187898Y146159D02*
D03*
Y98914D02*
D03*
X181992Y87103D02*
D03*
X187898Y75292D02*
D03*
X181992Y63481D02*
D03*
X187898Y51670D02*
D03*
Y4426D02*
D03*
X181992Y-7385D02*
D03*
X176086Y217025D02*
D03*
X170181Y205214D02*
D03*
Y157970D02*
D03*
X176086Y146159D02*
D03*
X170181Y87103D02*
D03*
X176086Y75292D02*
D03*
X170181Y63481D02*
D03*
X176086Y51670D02*
D03*
Y4426D02*
D03*
X170181Y-7385D02*
D03*
X164276Y217025D02*
D03*
X158370Y205214D02*
D03*
X164276Y146159D02*
D03*
Y98914D02*
D03*
Y75292D02*
D03*
Y51670D02*
D03*
Y4426D02*
D03*
X158370Y-7385D02*
D03*
X152464Y217025D02*
D03*
X146559Y205214D02*
D03*
X152464Y4426D02*
D03*
X146559Y-7385D02*
D03*
X140653Y217025D02*
D03*
X134748Y205214D02*
D03*
X140653Y4426D02*
D03*
X134748Y-7385D02*
D03*
X128842Y217025D02*
D03*
X122937Y205214D02*
D03*
X128842Y4426D02*
D03*
X122937Y-7385D02*
D03*
X117031Y217025D02*
D03*
Y4426D02*
D03*
X111126Y-7385D02*
D03*
X105220Y217025D02*
D03*
X99315Y-7385D02*
D03*
X87504Y205214D02*
D03*
X93409Y4426D02*
D03*
X87504Y-7385D02*
D03*
X75693D02*
D03*
X11045Y66106D02*
D03*
X40907Y83950D02*
D03*
X56161Y27013D02*
D03*
X45661Y63950D02*
D03*
X69040Y102671D02*
D03*
X35661D02*
D03*
X17461Y83828D02*
D03*
X62472Y150450D02*
D03*
X40500D02*
D03*
X28702Y131753D02*
D03*
X57040Y181426D02*
D03*
X13312Y124450D02*
D03*
X8177Y112907D02*
D03*
X2961Y143311D02*
D03*
X92161Y172950D02*
D03*
X72356Y159639D02*
D03*
X53312Y117221D02*
D03*
X96031Y214816D02*
D03*
X62472Y215950D02*
D03*
X79781Y59950D02*
D03*
X54917D02*
D03*
X53161Y126950D02*
D03*
X69661Y56450D02*
D03*
X115161Y35342D02*
D03*
X62661Y12450D02*
D03*
X115161Y-50D02*
D03*
X158161Y181426D02*
D03*
X17461Y120584D02*
D03*
X11610Y98450D02*
D03*
X154661Y27013D02*
D03*
X13161Y86950D02*
D03*
X27661Y79450D02*
D03*
X23428Y90702D02*
D03*
X27661Y92256D02*
D03*
X31161Y99950D02*
D03*
X34661Y97552D02*
D03*
X27661Y101950D02*
D03*
X57661Y97552D02*
D03*
X55161Y83950D02*
D03*
X13161Y116950D02*
D03*
X31161Y86950D02*
D03*
M02*
