G04*
G04 #@! TF.GenerationSoftware,Altium Limited,Altium Designer,20.0.11 (256)*
G04*
G04 Layer_Color=8388736*
%FSLAX25Y25*%
%MOIN*%
G70*
G01*
G75*
%ADD27R,0.05131X0.07493*%
%ADD28R,0.03162X0.08556*%
%ADD29R,0.24422X0.24422*%
%ADD30R,0.03753X0.04147*%
%ADD31R,0.07021X0.14619*%
%ADD32R,0.03950X0.04343*%
%ADD33R,0.06942X0.09973*%
%ADD34R,0.04737X0.08674*%
%ADD35O,0.07493X0.02178*%
%ADD36R,0.04343X0.03950*%
%ADD37C,0.07847*%
%ADD38R,0.07847X0.07847*%
%ADD39C,0.06300*%
%ADD40C,0.10800*%
%ADD41C,0.29934*%
D27*
X223815Y184000D02*
D03*
X213185D02*
D03*
Y25000D02*
D03*
X223815D02*
D03*
D28*
X111041Y153487D02*
D03*
X106041D02*
D03*
X101041D02*
D03*
X96041D02*
D03*
Y172976D02*
D03*
X101041D02*
D03*
X106041D02*
D03*
X111041D02*
D03*
Y208330D02*
D03*
X106041D02*
D03*
X101041D02*
D03*
X96041D02*
D03*
Y188842D02*
D03*
X101041D02*
D03*
X106041D02*
D03*
X111041D02*
D03*
X96500Y-13D02*
D03*
X101500D02*
D03*
X106500D02*
D03*
X111500D02*
D03*
Y19476D02*
D03*
X106500D02*
D03*
X101500D02*
D03*
X96500D02*
D03*
Y35342D02*
D03*
X101500D02*
D03*
X106500D02*
D03*
X111500D02*
D03*
Y54830D02*
D03*
X106500D02*
D03*
X101500D02*
D03*
X96500D02*
D03*
D29*
X128819Y180909D02*
D03*
X181181D02*
D03*
Y27409D02*
D03*
X128819D02*
D03*
D30*
X3256Y109450D02*
D03*
X8177D02*
D03*
D31*
X175000Y93695D02*
D03*
Y114955D02*
D03*
X204161Y93695D02*
D03*
Y114955D02*
D03*
X208661Y39410D02*
D03*
Y60669D02*
D03*
Y169609D02*
D03*
Y148349D02*
D03*
D32*
X2961Y79450D02*
D03*
X8472D02*
D03*
X2961Y131950D02*
D03*
X8472D02*
D03*
X2961Y139450D02*
D03*
X8472D02*
D03*
X2961Y71950D02*
D03*
X8472D02*
D03*
X2961Y101950D02*
D03*
X8472D02*
D03*
X2961Y116950D02*
D03*
X8472D02*
D03*
X17461Y94450D02*
D03*
X22973D02*
D03*
X17461Y124450D02*
D03*
X22973D02*
D03*
X22972Y116950D02*
D03*
X17461D02*
D03*
X22972Y101950D02*
D03*
X17461D02*
D03*
X80756Y114871D02*
D03*
X75244D02*
D03*
X81756Y92371D02*
D03*
X76244D02*
D03*
X62472Y131950D02*
D03*
X56961D02*
D03*
X49406Y79450D02*
D03*
X54917D02*
D03*
X2961Y86950D02*
D03*
X8472D02*
D03*
X17461D02*
D03*
X22973D02*
D03*
X17461Y79450D02*
D03*
X22973D02*
D03*
X17461Y71950D02*
D03*
X22973D02*
D03*
X2961Y94450D02*
D03*
X8472D02*
D03*
X17461Y131950D02*
D03*
X22973D02*
D03*
X17461Y139450D02*
D03*
X22973D02*
D03*
X17461Y109450D02*
D03*
X22973D02*
D03*
X93500Y114871D02*
D03*
X87988D02*
D03*
X94000Y92371D02*
D03*
X88488D02*
D03*
X62256Y147000D02*
D03*
X56744D02*
D03*
X49406Y64000D02*
D03*
X54917D02*
D03*
X56961Y139450D02*
D03*
X62472D02*
D03*
X49406Y71950D02*
D03*
X54917D02*
D03*
D33*
X78161Y207871D02*
D03*
Y191020D02*
D03*
X78000Y1075D02*
D03*
Y17925D02*
D03*
D34*
X40500Y143311D02*
D03*
Y131500D02*
D03*
D35*
X63382Y87316D02*
D03*
Y89875D02*
D03*
Y92434D02*
D03*
Y94993D02*
D03*
Y97552D02*
D03*
Y100111D02*
D03*
Y102671D02*
D03*
Y105229D02*
D03*
Y107789D02*
D03*
Y110348D02*
D03*
Y112907D02*
D03*
Y115466D02*
D03*
Y118025D02*
D03*
Y120584D02*
D03*
X40941Y87316D02*
D03*
Y89875D02*
D03*
Y92434D02*
D03*
Y94993D02*
D03*
Y97552D02*
D03*
Y100111D02*
D03*
Y102671D02*
D03*
Y105229D02*
D03*
Y107789D02*
D03*
Y110348D02*
D03*
Y112907D02*
D03*
Y115466D02*
D03*
Y118025D02*
D03*
Y120584D02*
D03*
D36*
X93681Y101073D02*
D03*
Y108554D02*
D03*
X85807Y104813D02*
D03*
D37*
X234347Y-7050D02*
D03*
Y22450D02*
D03*
X236315Y175950D02*
D03*
Y205450D02*
D03*
D38*
X234347Y2950D02*
D03*
Y32450D02*
D03*
X236315Y185950D02*
D03*
Y215450D02*
D03*
D39*
X233161Y82556D02*
D03*
X243161Y87950D02*
D03*
X233161Y93344D02*
D03*
X243161Y98737D02*
D03*
X233161Y104131D02*
D03*
X243161Y109525D02*
D03*
X233161Y114918D02*
D03*
X243161Y120312D02*
D03*
X233161Y125706D02*
D03*
D40*
X238192Y54931D02*
D03*
Y153331D02*
D03*
D41*
X0Y0D02*
D03*
X208661D02*
D03*
Y208661D02*
D03*
X0D02*
D03*
M02*
